<?xml version="1.0" encoding="utf-8"?>
<!-- Generator: Adobe Illustrator 16.0.0, SVG Export Plug-In . SVG Version: 6.00 Build 0)  -->
<!DOCTYPE svg PUBLIC "-//W3C//DTD SVG 1.1//EN" "http://www.w3.org/Graphics/SVG/1.1/DTD/svg11.dtd">
<svg version="1.1" id="圖層_1" xmlns="http://www.w3.org/2000/svg" xmlns:xlink="http://www.w3.org/1999/xlink" x="0px" y="0px"
	 width="120px" height="24px" viewBox="0 0 120 24" enable-background="new 0 0 120 24" xml:space="preserve">
<title>logo_w</title>
<desc>Created with Sketch.</desc>
<g id="Welcome">
	<g id="Artboard" transform="translate(-793.000000, -48.000000)">
		<path id="logo_w" fill="#FFFFFF" d="M799.696,59.64c-1.44,3.264-3.864,6.887-6.024,9.047c0.984,0.553,2.736,1.705,3.552,2.377
			c2.04-2.496,4.68-6.553,6.432-10.152L799.696,59.64z M806.296,61.128c1.92,3.12,4.68,7.272,5.856,9.815l3.744-2.039
			c-1.392-2.545-4.344-6.528-6.216-9.408L806.296,61.128z M805.12,54.336l2.928-1.08c-0.528-1.296-1.632-3.312-2.4-4.776
			l-3.696,1.248c0.672,1.44,1.56,3.312,2.016,4.608h-9.96v3.648h22.056v-3.648H805.12z M831.4,63.191v-1.655h3.696v1.655H831.4z
			 M828.088,61.536v1.655h-3.6c0.072-0.551,0.12-1.127,0.144-1.655H828.088z M829.6,52.584c-0.264,0.48-0.576,0.96-0.864,1.392
			h-4.272c0.384-0.456,0.72-0.912,1.056-1.392H829.6z M824.656,57h3.432v1.632h-3.432V57z M835.096,58.632H831.4V57h3.696V58.632z
			 M838.552,53.976h-6.024c0.696-0.96,1.344-1.944,1.848-2.784L832,49.608l-0.552,0.144h-4.176c0.12-0.24,0.264-0.504,0.384-0.744
			l-3.72-0.672c-1.08,2.376-3.024,5.016-6.024,6.984c0.792,0.528,1.944,1.752,2.472,2.568c0.312-0.24,0.6-0.456,0.888-0.696v3.168
			c0,2.88-0.288,6.312-3.768,8.617c0.696,0.479,1.992,1.775,2.472,2.447c2.016-1.344,3.192-3.24,3.864-5.256h11.256v1.296
			c0,0.456-0.192,0.601-0.72,0.601s-2.592,0.023-4.104-0.072c0.504,0.863,1.128,2.376,1.296,3.336c2.376,0,4.08-0.049,5.328-0.576
			c1.224-0.527,1.656-1.439,1.656-3.216V53.976z M853.912,55.128h-2.016v-2.112h2.016V55.128z M859.624,58.32v2.76
			c-0.097,0.023-0.216,0.048-0.408,0.048h-1.344c-0.601,0-0.672-0.071-0.672-0.96V58.32H859.624z M846.592,66.695v-3.047
			c0.384,0.432,0.72,0.888,0.912,1.199c3.312-1.416,4.224-4.031,4.368-6.528h2.04v1.872c0,3.192,0.576,4.176,3.384,4.176h2.28h0.048
			v2.327H846.592z M848.776,58.32c-0.12,1.32-0.552,2.543-2.184,3.528V58.32H848.776z M863.872,53.016v-3.36h-21.84v3.36h6.768
			v2.112h-5.592v16.056h3.384v-1.295h13.032v1.295h3.552V55.128H857.2v-2.112H863.872z M872.752,53.664
			c-0.527,0.552-1.128,1.056-1.824,1.536c-0.408-0.336-0.959-0.744-1.464-1.032c0.168-0.168,0.336-0.336,0.505-0.504H872.752z
			 M874.744,51.744l-0.504,0.12h-1.152v-0.552h3.768V49.32h-3.768v-0.84h-2.904v3.168l-1.416-0.264
			c-0.695,0.96-1.848,2.016-3.408,2.808c0.553,0.36,1.369,1.224,1.752,1.8c0.24-0.144,0.457-0.288,0.673-0.456
			c0.36,0.264,0.769,0.576,1.104,0.864c-0.961,0.456-1.969,0.84-2.953,1.104c0.553,0.504,1.297,1.464,1.656,2.088
			c3.696-1.224,7.297-3.432,9.049-6.84L874.744,51.744z M871.624,61.344c0.815-0.359,1.608-0.768,2.376-1.2v0.887h5.952v-0.815
			c0.792,0.408,1.632,0.769,2.472,1.128H871.624z M883.456,66.816c-0.265,0.24-0.528,0.455-0.792,0.672
			c-0.648-0.24-1.32-0.457-1.992-0.672H883.456z M873.52,68.064v-1.248h3.721l-0.816,0.936l0.24,0.072L873.52,68.064z
			 M873.52,64.656h7.248v0.455h-7.248V64.656z M873.52,63.072h7.248v0.408h-7.248V63.072z M875.152,59.448
			c0.552-0.336,1.08-0.72,1.584-1.104c0.552,0.384,1.152,0.744,1.775,1.104H875.152z M883.072,51.504
			c-0.336,0.432-0.721,0.84-1.176,1.224c-0.912-0.456-1.849-0.864-2.688-1.224H883.072z M887.561,56.112
			c-0.769-0.624-1.849-1.32-3.024-1.992c1.104-1.152,1.968-2.568,2.544-4.248l-1.896-0.768l-0.527,0.096h-7.176v2.304h1.56
			l-1.872,1.824c0.695,0.312,1.416,0.648,2.16,1.032c-0.48,0.216-0.984,0.408-1.488,0.552c0.168,0.168,0.336,0.384,0.528,0.6
			l-1.536-0.792c-2.424,2.712-7.057,4.728-11.279,5.807c0.672,0.673,1.416,1.705,1.775,2.449c0.96-0.312,1.92-0.648,2.88-1.033
			v5.425c0,0.937-0.36,1.319-0.792,1.536c0.384,0.455,0.863,1.656,0.984,2.328c0.647-0.289,1.656-0.48,7.439-1.032
			c-0.048-0.505-0.023-1.32,0.023-2.017c2.857,0.912,6.121,2.232,7.849,3.264l1.632-1.967c-0.6-0.336-1.367-0.696-2.207-1.033
			c0.695-0.504,1.416-1.031,2.111-1.559l-2.376-1.488c-0.24,0.264-0.504,0.552-0.815,0.84v-4.248c0.912,0.336,1.799,0.6,2.639,0.84
			c0.408-0.721,1.273-1.872,1.896-2.448c-3.408-0.72-7.488-2.112-10.008-3.576c0.12-0.144,0.264-0.288,0.408-0.432
			c0.216,0.336,0.408,0.648,0.527,0.912c0.961-0.36,1.849-0.792,2.688-1.296c1.319,0.792,2.472,1.584,3.239,2.256L887.561,56.112z
			 M897.52,60.553v-0.625h1.248v0.576L897.52,60.553z M898.768,55.536v0.552h-1.248v-0.552H898.768z M897.52,57.696h1.248v0.624
			h-1.248V57.696z M901.288,55.536h0.769v-2.088h-7.584v2.088h0.672v5.112l-0.984,0.023L894.328,63
			c1.344-0.096,2.855-0.191,4.439-0.288v2.16l-1.031-1.944c-1.032,0.264-2.568,0.456-3.912,0.528c0.24-2.208,0.287-4.368,0.287-6.12
			v-4.704h17.953v-2.64h-8.785c-0.311-0.648-0.768-1.344-1.223-1.896l-3,1.152c0.168,0.24,0.336,0.48,0.479,0.744h-8.544v7.368
			c0,3.552-0.096,8.64-1.656,12.072c0.695,0.312,2.088,1.32,2.641,1.896c0.959-1.992,1.487-4.633,1.799-7.248
			c0.145,0.432,0.265,0.912,0.312,1.248c0.359,0.023,0.768,0.023,1.176,0.023v0.625h-1.104v1.775h1.104v0.816l-1.8,0.096
			l0.216,2.088c1.488-0.12,3.096-0.264,4.776-0.432l-0.048-1.944l-1.057,0.071v-0.695h1.032v-1.775h-1.032v-0.793
			c0.504-0.047,0.984-0.119,1.416-0.215v6.287h2.521V69.84l1.632,0.744c0.672-1.031,0.936-2.664,1.08-4.199l-2.137-0.601
			c-0.071,0.983-0.264,1.991-0.575,2.856V55.536z M908.92,58.68h0.648v1.176h-0.648V58.68z M907.216,59.856h-0.624V58.68h0.624
			V59.856z M904.889,59.856h-0.601V58.68h0.601V59.856z M911.752,56.136v-2.304h-3.456v-0.864h-2.903v0.864h-3.168v2.304h3.168
			v0.696h-3.072v4.896h9.312v-4.896h-3.336v-0.696H911.752z M906.736,69.023c-0.289,0-0.336-0.047-0.336-0.551v-1.945
			c0.287,0.385,0.527,0.769,0.672,1.08l1.775-1.055c0.264,0.551,0.528,1.151,0.744,1.752c-0.623-0.168-1.416-0.48-1.775-0.793
			c-0.049,1.344-0.145,1.512-0.457,1.512H906.736z M912.376,69.408c-0.168-1.152-0.888-2.855-1.655-4.152l-1.969,0.696
			c-0.288-0.433-0.721-0.937-1.152-1.392h4.68v-2.256h-10.391v2.256h3.863l-0.695,0.408c0.287,0.264,0.575,0.575,0.84,0.911h-1.873
			v2.593c0,2.016,0.385,2.664,2.305,2.664h1.344c1.248,0,1.848-0.48,2.137-2.185c0.144,0.479,0.239,0.911,0.287,1.296
			L912.376,69.408z"/>
	</g>
</g>
</svg>
